<?xml version="1.0" encoding="utf-8"?>
<!-- Generator: Adobe Illustrator 20.1.0, SVG Export Plug-In . SVG Version: 6.00 Build 0)  -->
<svg version="1.1" id="Слой_1" xmlns="http://www.w3.org/2000/svg" xmlns:xlink="http://www.w3.org/1999/xlink" x="0px" y="0px"
	 viewBox="0 0 50 50" style="enable-background:new 0 0 50 50;" xml:space="preserve">
<style type="text/css">
	.st0{fill:#030303;}
</style>
<path id="path43" class="st0" d="M16.1,48.3C7.3,45.2,0,34.7,0,25c0-6,3-13,7.5-17.5c9.8-9.8,25.3-9.8,35.1,0
	C61.4,26.3,41.3,57.2,16.1,48.3z M23.9,44.4c1.8-1.3,2-1.9,1.1-3c-0.6-0.8-1.8-1.4-2.5-1.4s-2.6-1.1-4.1-2.4
	c-1.6-1.3-4.5-3.1-6.6-3.9c-2.4-1-3.7-2.2-3.7-3.4c0-1-0.5-2.4-1.2-3.1c-0.9-0.9-0.9-1.5,0-2.4c0.9-0.9,1.5-0.9,2.3-0.1
	c0.8,0.8,2.5,0.2,5.9-2c4.5-2.9,4.8-3.4,4.8-7.1c0-2.2-0.2-3-0.4-1.9S18,16,17,16.3c-2.8,0.7-3.3-0.9-0.9-2.6c1.4-1,1.7-1.7,0.9-2.2
	c-0.7-0.4-0.9-1.7-0.6-3.1c1-3.8-1.7-2.9-6.3,2.1c-6.8,7.4-7.7,12.2-3.6,19.3C7.9,32.2,9,35.2,9,36.4c0,1.2,1.5,3.9,3.4,5.9
	C16.2,46.4,20,47.1,23.9,44.4L23.9,44.4z M47,26.8c0-3.1-0.4-4.8-1.2-4.8c-0.9,0-0.8-0.3,0.2-0.9c3.2-2-4-12.6-11-16.1
	c-2.6-1.3-5.7-1.9-9.6-1.8C20,3.2,19.8,3.3,23,4.1c1.9,0.5,4.7,1.1,6.1,1.5C31.6,6.2,35,10,33,10c-0.6,0-1,1.1-1,2.5
	c0,1.6,0.6,2.5,1.6,2.5c1,0,1.3-0.5,0.9-1.3c-0.5-0.9-0.3-0.9,0.7,0.1c1.2,1.1,1,1.6-1,3.2c-1.3,1.1-1.9,1.9-1.3,1.9
	s1.1,1.1,1.1,2.5s0.4,2.5,1,2.5c0.5,0,1-0.6,1-1.4c0-1.8,6.1-4.9,7.2-3.7c1.2,1.2-1.9,4.2-4.3,4.2c-2.2,0-5.9,5.4-5.9,8.7
	c0,2.8,2.8,4.5,5.3,3.1c2.4-1.3,4.7-0.4,4.7,1.9C43.2,40.8,47,31.2,47,26.8L47,26.8z M25,14.6c1.5-2.8,1.1-4.8-1.2-5.2
	c-1.3-0.2-1.6,0.6-1.6,3.7C22.3,17.6,23.1,18,25,14.6z"/>
</svg>
