<?xml version="1.0" encoding="utf-8"?>
<!-- Generator: Adobe Illustrator 20.1.0, SVG Export Plug-In . SVG Version: 6.00 Build 0)  -->
<svg version="1.1" id="Слой_1" xmlns="http://www.w3.org/2000/svg" xmlns:xlink="http://www.w3.org/1999/xlink" x="0px" y="0px"
	 viewBox="0 0 50 50" style="enable-background:new 0 0 50 50;" xml:space="preserve">
<style type="text/css">
	.st0{fill:#030303;}
</style>
<path id="path45" class="st0" d="M2.1,47.3c-0.4-0.4-0.7-4.6-0.7-9.3v-8.7h10.3h10.3v2.5c0,2.1,0.5,2.5,2.9,2.5
	c2.5,0,2.9-0.4,2.9-2.5v-2.5h10.3h10.3l-0.3,9.1l-0.3,9.1l-22.7,0.3C13,47.8,2.5,47.7,2.1,47.3L2.1,47.3z M0.7,17.7l0.3-8.6l6.6-0.3
	l6.6-0.3l0.3-3.1l0.3-3.1H25h10.3l0.3,3.1l0.3,3.1l6.6,0.3l6.6,0.3l0.3,8.6l0.3,8.6H25H0.4L0.7,17.7z M31.9,6.7c0-1.8-0.7-2-6.9-2
	c-6.2,0-6.9,0.2-6.9,2s0.7,2,6.9,2C31.2,8.6,31.9,8.5,31.9,6.7z"/>
</svg>
