<?xml version="1.0" encoding="utf-8"?>
<!-- Generator: Adobe Illustrator 20.1.0, SVG Export Plug-In . SVG Version: 6.00 Build 0)  -->
<svg version="1.1" id="Слой_1" xmlns="http://www.w3.org/2000/svg" xmlns:xlink="http://www.w3.org/1999/xlink" x="0px" y="0px"
	 viewBox="0 0 50 50" style="enable-background:new 0 0 50 50;" xml:space="preserve">
<style type="text/css">
	.st0{fill:#030303;}
</style>
<path id="path47" class="st0" d="M8.2,45.7c-0.5-1-1.9-5.1-3.2-9.2c-1.2-4.1-2.9-8-3.7-8.6c-0.8-0.6-1.3-2.2-1.1-3.5L0.5,22H25h24.5
	l0.3,2.4c0.2,1.3-0.3,2.9-1.1,3.5C48,28.5,46,33,44.4,38l-2.9,9l-16.2,0.3C10.6,47.5,9,47.4,8.2,45.7L8.2,45.7z M16.8,42.2
	c1.3-1.6-1-11.6-3-12.8c-4-2.5-5.5,0.2-3.8,7.1C11.4,42.5,14.5,45,16.8,42.2L16.8,42.2z M26.8,42.3c1.8-1.8,1.5-11.3-0.3-12.8
	c-1.2-1-1.8-1-3,0c-2.8,2.4-1.6,14,1.5,14C25.3,43.5,26.1,42.9,26.8,42.3L26.8,42.3z M37,42.5c2-1.1,4.6-10.1,3.7-12.5
	c-0.6-1.6-2.4-1.9-4.4-0.6c-2,1.3-4.4,11.2-3,12.8C34.5,43.7,34.6,43.7,37,42.5z M15.2,11.2C22.3,3,23,2.4,24.7,2.7
	c0.6,0.1,4.2,3.6,7.9,7.7c6.4,7.2,6.6,7.5,4.2,7.8c-2,0.2-3.5-0.8-6.8-4.3c-2.3-2.5-4.9-4.6-5.7-4.6c-0.8,0-3.3,2-5.5,4.5
	c-3,3.4-4.7,4.5-7,4.5h-3L15.2,11.2z"/>
</svg>
